<?xml version="1.0" encoding="UTF-8" standalone="no"?>
<svg width="14px" height="24px" viewBox="0 0 14 24" version="1.1" xmlns="http://www.w3.org/2000/svg" xmlns:xlink="http://www.w3.org/1999/xlink" xmlns:sketch="http://www.bohemiancoding.com/sketch/ns">
    <!-- Generator: Sketch 3.3.3 (12072) - http://www.bohemiancoding.com/sketch -->
    <title>Call_Waiter</title>
    <desc>Created with Sketch.</desc>
    <defs></defs>
    <g id="Page-1" stroke="none" stroke-width="1" fill="none" fill-rule="evenodd" sketch:type="MSPage">
        <g id="Call_Waiter" sketch:type="MSLayerGroup" transform="translate(-5.000000, 0.000000)">
            <rect id="24x24" sketch:type="MSShapeGroup" x="0" y="0" width="24" height="24"></rect>
            <path d="M18.3368423,4.59264778 C17.7467806,4.51353517 17.4351563,5.00236105 17.39646,5.54740191 L16.9565217,9.87016635 C16.9483065,10.0709709 16.7766344,10.2275881 16.5728512,10.2194839 C16.3692962,10.2116048 16.2107946,10.0422845 16.2187816,9.84102975 L16.485646,2.12134352 C16.5051408,1.57514492 16.0724398,1.11687066 15.518825,1.09744626 C14.965145,1.07802186 14.5005937,1.50506916 14.4806098,2.05101048 L14.2198416,9.7091754 C14.2198416,9.87113113 14.0866703,10.002278 13.9227244,10.002278 C13.7586155,10.002278 13.6256723,9.87109897 13.6256723,9.7091754 L13.6254115,0.989197055 C13.6254115,0.443030613 13.1763126,0 12.6224044,0 C12.0684962,0 11.6193973,0.442998454 11.6193973,0.989197055 L11.6120949,9.54657648 C11.6120949,9.73049721 11.4610587,9.87852784 11.2744557,9.87946047 C11.0017234,9.88084333 10.9479984,9.62777946 10.9479984,9.62777946 C10.9414458,9.60153723 10.6135866,2.02389994 10.6135866,2.02389994 C10.5847355,1.47818373 10.1127514,1.05898338 9.55978859,1.08766974 C9.00653239,1.11587371 8.58139457,1.58180196 8.61050645,2.12729305 L9.12946735,12.9617006 C9.1819535,13.2871879 8.95688245,13.5927684 8.6269369,13.6445775 C8.29673054,13.6963866 7.98696445,13.474807 7.9344457,13.1490624 L6.97743734,9.3052187 C6.84586336,8.77407079 6.30300659,8.44929101 5.76503984,8.57882987 C5.22684488,8.70881897 4.89738833,9.24437274 5.02892971,9.77507042 L6.6170107,16.180812 C6.64631818,16.2982588 8.91352432,20.2952787 9.74016491,20.4870464 L9.74016491,22.7116544 C9.74016491,23.4232498 10.3248476,24 11.0459291,24 L15.4872029,24 C16.2085126,24 16.7931953,23.4232498 16.7931953,22.7116544 L16.7931953,20.2743106 C17.9628866,18.7974133 18.4082039,16.0256098 18.4269816,13.6388852 L18.9944514,5.64642131 C19.0328543,5.10089806 18.8780691,4.66526415 18.3368423,4.59264778 L18.3368423,4.59264778 L18.3368423,4.59264778 Z" id="hand" fill="#FFFFFF" sketch:type="MSShapeGroup"></path>
        </g>
    </g>
</svg>