<?xml version="1.0" encoding="UTF-8" standalone="no"?>
<svg width="24px" height="24px" viewBox="0 0 24 24" version="1.1" xmlns="http://www.w3.org/2000/svg" xmlns:xlink="http://www.w3.org/1999/xlink" xmlns:sketch="http://www.bohemiancoding.com/sketch/ns">
    <!-- Generator: Sketch 3.3.3 (12072) - http://www.bohemiancoding.com/sketch -->
    <title>Check-In_Icon</title>
    <desc>Created with Sketch.</desc>
    <defs></defs>
    <g id="Page-1" stroke="none" stroke-width="1" fill="none" fill-rule="evenodd" sketch:type="MSPage">
        <g id="Check-In_Icon" sketch:type="MSLayerGroup">
            <rect id="Fill" opacity="0.01" fill-opacity="0.01" fill="#FFFFFF" sketch:type="MSShapeGroup" x="0" y="0" width="24" height="24"></rect>
            <path d="M0.923076923,6 L0.923076923,0.461538462 L0.461538462,0.923076923 L6,0.923076923 L6,0 L0.461538462,0 L0,0 L0,0.461538462 L0,6 L0.923076923,6 Z M23.0769231,6 L23.0769231,0.461538462 L23.5384615,0.923076923 L18,0.923076923 L18,0 L23.5384615,0 L24,0 L24,0.461538462 L24,6 L23.0769231,6 Z M0.923076923,18 L0.923076923,23.5384615 L0.461538462,23.0769231 L6,23.0769231 L6,24 L0.461538462,24 L0,24 L0,23.5384615 L0,18 L0.923076923,18 Z M23.0769231,18 L23.0769231,23.5384615 L23.5384615,23.0769231 L18,23.0769231 L18,24 L23.5384615,24 L24,24 L24,23.5384615 L24,18 L23.0769231,18 Z" id="Shape" fill="#4E4E4E" sketch:type="MSShapeGroup"></path>
            <path d="M12.5043609,12.9475369 C11.1410449,12.4958372 10.5743328,11.9341223 10.5743328,11.9341223 L10.5287038,11.9782416 C10.1238401,12.3647835 9.67606432,12.5920237 9.26814416,12.5920237 L9.22964694,12.5920237 C8.82175104,12.5920237 8.37397523,12.3647835 7.96911156,11.9782416 L7.92345827,11.9341223 C7.92345827,11.9341223 7.35679469,12.4958126 5.99345451,12.9475369 C3.9809255,13.7101385 4.58521303,16.81367 4.58463084,16.8377105 C4.64801662,17.1833566 4.68496134,17.3021563 4.71715152,17.315493 C6.73817077,18.228169 11.7596688,18.228169 13.7807124,17.315493 C13.8129025,17.3021563 13.8498473,17.1833566 13.913233,16.8377105 C13.9126509,16.81367 14.5250162,13.7224663 12.5043609,12.9475369 Z M11.3624949,8.98821939 L11.3456115,8.96964156 C11.2323758,8.8644738 11.2412299,8.87050237 11.2412299,8.87050237 C11.2412299,8.87050237 11.4387374,7.8595976 11.2803578,7.38154444 C11.0317148,6.61808164 9.54652735,6.10639153 9.24864084,6.04691786 C9.24868936,6.04635191 9.0674589,6.00956534 9.0558879,6.00949152 C9.0558879,6.00949152 8.82158124,5.96143522 8.55001451,6.08158828 C8.37315046,6.15060923 7.44851365,6.57593087 7.18606788,7.38154444 C7.02771258,7.8595976 7.22522006,8.87050237 7.22522006,8.87050237 C7.22522006,8.87050237 7.23407418,8.8644738 7.12081424,8.96964156 L7.10395503,8.98821939 C7.02734871,9.07645794 7.04626984,9.35254176 7.13000797,9.63977228 C7.20588655,9.92754414 7.30478584,10.0048821 7.32848577,10.072279 C7.56871134,11.2164028 8.40403071,12.1932769 9.25526324,12.1932769 C10.1064958,12.1932769 10.8976901,11.2164028 11.1379157,10.072279 C11.1616399,10.0049067 11.2605391,9.92754414 11.3364177,9.63977228 C11.4201559,9.35251715 11.4412844,9.05748641 11.3624949,8.98821939 Z" id="Profile-Icon" stroke="#4E4E4E" stroke-width="0.5" sketch:type="MSShapeGroup"></path>
            <path d="M16.5,6 C14.56674,6 13,7.539175 13,9.4375 C13,12.719625 16.5,17 16.5,17 C16.5,17 20,12.719625 20,9.4375 C20,7.539175 18.43298,6 16.5,6 L16.5,6 Z M16.5,11.335 C15.45602,11.335 14.61,10.50395 14.61,9.47875 C14.61,8.45355 15.45602,7.6225 16.5,7.6225 C17.5437,7.6225 18.39,8.45355 18.39,9.47875 C18.39,10.50395 17.5437,11.335 16.5,11.335 L16.5,11.335 Z" id="Pin" fill="#4E4E4E" sketch:type="MSShapeGroup"></path>
        </g>
    </g>
</svg>