<?xml version="1.0" encoding="UTF-8" standalone="no"?>
<svg width="24px" height="24px" viewBox="0 0 24 24" version="1.1" xmlns="http://www.w3.org/2000/svg" xmlns:xlink="http://www.w3.org/1999/xlink" xmlns:sketch="http://www.bohemiancoding.com/sketch/ns">
    <!-- Generator: Sketch 3.3.3 (12072) - http://www.bohemiancoding.com/sketch -->
    <title>mnu_Uber</title>
    <desc>Created with Sketch.</desc>
    <defs>
        <linearGradient x1="2.66374757%" y1="2.99581481%" x2="97.3366214%" y2="97.0047443%" id="linearGradient-1">
            <stop stop-color="#464451" offset="0%"></stop>
            <stop stop-color="#2B2735" offset="50%"></stop>
            <stop stop-color="#130B15" offset="100%"></stop>
        </linearGradient>
        <linearGradient x1="1.7300073%" y1="2.06923792%" x2="98.2701193%" y2="97.9310973%" id="linearGradient-2">
            <stop stop-color="#FEFEFE" offset="0%"></stop>
            <stop stop-color="#97949B" offset="100%"></stop>
        </linearGradient>
        <linearGradient x1="5.33120581%" y1="-1.23046731%" x2="94.6690421%" y2="87.6365551%" id="linearGradient-3">
            <stop stop-color="#F2F2F2" offset="0%"></stop>
            <stop stop-color="#B6B6B6" offset="100%"></stop>
        </linearGradient>
    </defs>
    <g id="Page-1" stroke="none" stroke-width="1" fill="none" fill-rule="evenodd" sketch:type="MSPage">
        <g id="mnu_Uber" sketch:type="MSLayerGroup">
            <rect id="24x24" stroke="#979797" opacity="0.01" fill-opacity="0.01" fill="#FFFFFF" sketch:type="MSShapeGroup" x="0" y="0" width="24" height="24"></rect>
            <g id="uber_logo" transform="translate(1.000000, 2.000000)" sketch:type="MSShapeGroup">
                <path d="M19.3851408,0.024125535 L2.61493882,0.024125535 C1.58544375,0.024125535 0.750862171,0.861649073 0.750822368,1.89473324 L0.750862171,18.7240514 C0.750862171,19.7571755 1.58544375,20.5947389 2.61497862,20.5947389 L19.3850612,20.5947389 C20.4145563,20.5947389 21.2491378,19.7572553 21.2491776,18.7241312 L21.2491776,1.89481312 C21.2491776,0.861689016 20.4145961,0.0241654779 19.3851408,0.024125535 L19.3851408,0.024125535 L19.3851408,0.024125535 Z" id="Backdrop" fill="url(#linearGradient-1)"></path>
                <path d="M19.3202625,0.842955777 L2.6812102,0.842955777 C2.06598092,0.842955777 1.56721414,1.34328103 1.56681612,1.96059914 L1.56681612,18.6575064 C1.56681612,19.2749444 2.06534408,19.7754693 2.68049375,19.7759087 L19.31875,19.7759087 C19.9335414,19.7759087 20.4319898,19.2763823 20.4331839,18.6597432 L20.4331839,1.95980029 C20.432348,1.34336091 19.9345763,0.843834522 19.3202625,0.842955777 L19.3202625,0.842955777 L19.3202625,0.842955777 Z M19.5973286,18.6175635 C19.5973286,18.7940314 19.4547556,18.937107 19.2789076,18.937107 L2.72101283,18.937107 C2.5451648,18.937107 2.40259178,18.7940314 2.40259178,18.6175635 L2.40259178,2.001301 C2.40259178,1.82479315 2.5451648,1.68175749 2.72101283,1.68175749 L19.2789076,1.68175749 C19.4547556,1.68175749 19.5973286,1.82479315 19.5973286,2.001301 L19.5973286,18.6175635 L19.5973286,18.6175635 Z" id="Stripe" fill="url(#linearGradient-2)"></path>
                <path d="M12.6318681,15.9447418 C15.4777562,15.9447418 16.6187783,14.3470642 16.6187783,12.4165021 L16.6187783,5.42648787 C16.6187783,5.0068873 16.3202187,4.67420257 15.842627,4.67420257 L12.2471359,4.67420257 L12.2471359,5.52634522 C12.2471359,5.8641826 12.5041812,6.27859058 13.0033859,6.27859058 L15.0797299,6.27859058 L15.0797299,12.2168274 C15.0797299,14.2804793 13.5274273,14.4136491 12.5987125,14.4136491 L9.4012875,14.4136491 C8.4725727,14.4136491 6.92027007,14.2804793 6.92027007,12.2168274 L6.92027007,6.27855064 L9.75286414,6.27855064 L9.75286414,5.42644793 C9.75286414,5.08857061 9.49581875,4.67416262 8.99661414,4.67416262 L6.15737303,4.67416262 C5.67978125,4.67416262 5.38122171,5.00684736 5.38122171,5.42644793 L5.38122171,12.4164622 C5.38122171,14.3470243 6.52224375,15.9447019 9.36813191,15.9447019 L12.6318681,15.9447019 L12.6318681,15.9447418 L12.6318681,15.9447418 Z" id="U_1_" fill="url(#linearGradient-3)"></path>
            </g>
        </g>
    </g>
</svg>