<?xml version="1.0" encoding="UTF-8" standalone="no"?>
<svg width="24px" height="24px" viewBox="0 0 24 24" version="1.1" xmlns="http://www.w3.org/2000/svg" xmlns:xlink="http://www.w3.org/1999/xlink" xmlns:sketch="http://www.bohemiancoding.com/sketch/ns">
    <!-- Generator: Sketch 3.3.3 (12072) - http://www.bohemiancoding.com/sketch -->
    <title>mnu_For_Here</title>
    <desc>Created with Sketch.</desc>
    <defs></defs>
    <g id="Page-1" stroke="none" stroke-width="1" fill="none" fill-rule="evenodd" sketch:type="MSPage">
        <g id="mnu_For_Here" sketch:type="MSLayerGroup">
            <rect id="24x24" opacity="0.01" fill-opacity="0.01" fill="#FFFFFF" sketch:type="MSShapeGroup" x="0" y="0" width="24" height="24"></rect>
            <path d="M22.3172259,21.1157532 C22.6609201,21.4286427 22.779233,22.1947333 22.3353151,22.6347343 C21.8943306,23.0791353 21.1267634,22.9613128 20.8153364,22.6181121 C17.9342703,19.5244163 15.0546709,16.4292538 12.1736047,13.3345803 L11.8460442,12.985024 C8.83248722,16.2204978 5.81990792,19.4574384 2.80732872,22.6943789 C2.49687952,23.0370908 1.73077902,23.1554021 1.28979452,22.7110012 C0.844898823,22.2705113 0.962233923,21.5024651 1.30543922,21.1910422 C4.55268862,18.1706799 7.79749362,15.1493399 11.0442542,12.1275109 C11.0442542,12.1275109 9.47294142,10.4325294 8.79533112,9.7050611 C7.20984022,10.8417303 4.86020442,10.4095516 3.44778292,8.665681 C1.92878202,6.825988 0.618539823,3.5357585 1.88673692,2.1883777 C3.23560192,0.919219326 6.52391872,2.2323778 8.36363562,3.7498923 C10.1070399,5.1637621 10.5416688,7.5099451 9.40254032,9.0963931 C10.2189972,9.8571059 11.0354541,10.6158631 11.8528887,11.376087 C11.8509332,11.3775537 11.8499554,11.3785315 11.8479998,11.3799982 C11.8479998,11.3799982 11.898845,11.4200871 11.8528887,11.376087 C12.6165448,10.6647521 13.3806898,9.9539061 14.1448348,9.2425712 C13.4994916,8.1406132 13.9282537,6.595232 14.9764474,5.7132744 C16.1786435,4.7056722 20.6329781,0.881574796 20.7527577,1.00281952 C20.8720484,1.12161978 17.7480008,4.0735375 15.6609023,6.1669643 L16.0089965,6.5145651 C18.2368971,4.5619385 21.3819672,1.63348759 21.5032135,1.75277674 C21.6225042,1.87255478 18.5962359,4.9207838 16.577094,7.0841219 L16.9227438,7.4287894 C19.0826878,5.4082071 22.1319342,2.3814893 22.2502471,2.5002895 C22.3700267,2.6205564 19.4410488,5.7660746 17.4883968,7.9939462 L17.8340465,8.3391025 C19.9265228,6.2520312 22.8770122,3.1280242 22.9977696,3.2463356 C23.118527,3.3666026 18.2955647,9.0176818 18.2887201,9.0259929 C18.2877423,9.0250151 19.3124691,7.8223458 18.284809,9.0230596 C17.3040829,10.1704844 15.8393495,10.5175962 14.7564441,9.856617 C14.0534112,10.6109742 13.3518449,11.3653315 12.6497898,12.1196887 C12.5881888,12.0615108 19.0953991,18.1173909 22.3172259,21.1157532 L22.3172259,21.1157532 L22.3172259,21.1157532 Z" id="Shape" fill="#4E4E4E" sketch:type="MSShapeGroup"></path>
        </g>
    </g>
</svg>