<?xml version="1.0" encoding="UTF-8" standalone="no"?>
<svg width="93px" height="44px" viewBox="0 0 93 44" version="1.1" xmlns="http://www.w3.org/2000/svg" xmlns:xlink="http://www.w3.org/1999/xlink" xmlns:sketch="http://www.bohemiancoding.com/sketch/ns">
    <!-- Generator: Sketch 3.3.3 (12072) - http://www.bohemiancoding.com/sketch -->
    <title>Pay_Step_3</title>
    <desc>Created with Sketch.</desc>
    <defs></defs>
    <g id="Page-1" stroke="none" stroke-width="1" fill="none" fill-rule="evenodd" sketch:type="MSPage">
        <g id="Payments_Top" sketch:type="MSLayerGroup" transform="translate(-187.000000, 0.000000)">
            <g id="Pay_Step_3" transform="translate(187.000000, 0.000000)">
                <rect id="93x44" fill="#E8E8E8" sketch:type="MSShapeGroup" x="0" y="0" width="93" height="44"></rect>
                <text id="Confirm-Order" sketch:type="MSTextLayer" font-family="Avenir Next" font-size="10" font-weight="normal" sketch:alignment="middle" letter-spacing="1" fill="#505050">
                    <tspan x="42.065" y="18">Confirm </tspan>
                    <tspan x="47.695" y="32">Order</tspan>
                </text>
                <path d="M16.49,19.91 L14.95,21.45 L19.9,26.4 L30.9,15.4 L29.36,13.86 L19.9,23.32 L16.49,19.91 L16.49,19.91 Z M29.8,22 C29.8,26.84 25.84,30.8 21,30.8 C16.16,30.8 12.2,26.84 12.2,22 C12.2,17.16 16.16,13.2 21,13.2 C21.88,13.2 22.65,13.31 23.42,13.53 L25.1800431,11.77 C23.86,11.33 22.43,11 21,11 C14.95,11 10,15.95 10,22 C10,28.05 14.95,33 21,33 C27.05,33 32,28.05 32,22 L29.8,22 L29.8,22 Z" id="Tick" fill="#4E4E4E" sketch:type="MSShapeGroup"></path>
            </g>
        </g>
    </g>
</svg>