<?xml version="1.0" encoding="UTF-8" standalone="no"?>
<svg width="24px" height="24px" viewBox="0 0 24 24" version="1.1" xmlns="http://www.w3.org/2000/svg" xmlns:xlink="http://www.w3.org/1999/xlink" xmlns:sketch="http://www.bohemiancoding.com/sketch/ns">
    <!-- Generator: Sketch 3.3.3 (12072) - http://www.bohemiancoding.com/sketch -->
    <title>Pay_Step_4-Invoice</title>
    <desc>Created with Sketch.</desc>
    <defs></defs>
    <g id="Page-1" stroke="none" stroke-width="1" fill="none" fill-rule="evenodd" sketch:type="MSPage">
        <g id="Pay_Step_4-Invoice" sketch:type="MSLayerGroup">
            <rect id="24x24" stroke="#979797" opacity="0.01" fill-opacity="0.01" fill="#FFFFFF" sketch:type="MSShapeGroup" x="0" y="0" width="24" height="24"></rect>
            <path d="M21.5815704,0 L7.91433424,0 C7.13220193,0 6.49585707,0.652792224 6.49585707,1.45514006 L6.49585707,4.71148694 C3.90318227,5.47263859 2,7.92600317 2,10.8268629 C2,13.7277226 3.90313464,16.1810871 6.49585707,16.9422388 L6.49585707,22.5448599 C6.49585707,23.3472078 7.13220193,24 7.91433424,24 L19.0831054,24 C19.2156178,24 19.3426584,23.9460156 19.4363925,23.8499076 L22.8536892,20.3442364 C22.9473757,20.2481284 23,20.1177555 23,19.981818 L23,1.45514006 C23,0.652792224 22.3637027,0 21.5815704,0 L21.5815704,0 L21.5815704,0 Z M7.91433424,1.02502147 L21.5815704,1.02502147 C21.8127177,1.02502147 22.0008043,1.21796957 22.0008043,1.45514006 L22.0008043,3.00189754 L7.49505272,3.00189754 L7.49505272,1.45514006 C7.49505272,1.21796957 7.68313941,1.02502147 7.91433424,1.02502147 L7.91433424,1.02502147 L7.91433424,1.02502147 Z M2.99919565,10.826814 C2.99919565,7.885344 5.33193684,5.49230928 8.19929536,5.49230928 C11.0666538,5.49230928 13.3993951,7.885344 13.3993951,10.826814 C13.3993951,13.7682841 11.0666538,16.1613677 8.19929536,16.1613677 C5.33193684,16.1613677 2.99919565,13.7682841 2.99919565,10.826814 L2.99919565,10.826814 L2.99919565,10.826814 Z M7.49505272,22.5448112 L7.49505272,17.1450954 C7.72629518,17.1720389 7.96120127,17.1863892 8.1993429,17.1863892 C10.0614154,17.1863892 11.7342117,16.3396726 12.8715343,15.0020196 L15.9326891,15.0020196 C16.2086098,15.0020196 16.4322869,14.7725611 16.4322869,14.4895088 C16.4322869,14.2064564 16.2086098,13.976998 15.9326891,13.976998 L13.5831043,13.976998 C14.0176592,13.1984698 14.2960542,12.3171953 14.3750383,11.3782268 L15.9326415,11.3782268 C16.2085623,11.3782268 16.4322393,11.1487685 16.4322393,10.8657161 C16.4322393,10.5826637 16.2085623,10.3532053 15.9326415,10.3532053 L14.3813665,10.3532053 C14.3138018,9.41633568 14.0473497,8.53540291 13.6254987,7.75448294 L15.9325939,7.75448294 C16.2085147,7.75448294 16.4321918,7.52502451 16.4321918,7.24197216 C16.4321918,6.95891981 16.2085147,6.72946147 15.9325939,6.72946147 L12.9362441,6.72946147 C11.7982078,5.34700032 10.097101,4.46723894 8.19920019,4.46723894 C7.96105857,4.46723894 7.72615238,4.48158931 7.49491002,4.50853267 L7.49491002,4.02691901 L22.0006616,4.02691901 L22.0006616,19.4692097 L20.001842,19.4692097 C19.2196622,19.4692097 18.5834125,20.122002 18.5834125,20.9243009 L18.5834125,22.9748809 L7.91433424,22.9748809 C7.68313941,22.9748809 7.49505272,22.7819816 7.49505272,22.5448112 L7.49505272,22.5448112 L7.49505272,22.5448112 Z M19.5827509,22.2500442 L19.5827509,20.9243498 C19.5827509,20.6871793 19.7708375,20.49428 20.0019848,20.49428 L21.2942779,20.49428 L19.5827509,22.2500442 L19.5827509,22.2500442 Z M17.8955852,7.75448294 L19.5547258,7.75448294 C19.8306465,7.75448294 20.0543236,7.52502451 20.0543236,7.24197216 C20.0543236,6.95891981 19.8306465,6.72946147 19.5547258,6.72946147 L17.8955852,6.72946147 C17.6196645,6.72946147 17.3959873,6.95891981 17.3959873,7.24197216 C17.3959873,7.52502451 17.6196645,7.75448294 17.8955852,7.75448294 L17.8955852,7.75448294 Z M17.8955852,11.3782268 L19.5547258,11.3782268 C19.8306465,11.3782268 20.0543236,11.1487685 20.0543236,10.8657161 C20.0543236,10.5826637 19.8306465,10.3532053 19.5547258,10.3532053 L17.8955852,10.3532053 C17.6196645,10.3532053 17.3959873,10.5826637 17.3959873,10.8657161 C17.3959873,11.1487685 17.6196645,11.3782268 17.8955852,11.3782268 L17.8955852,11.3782268 Z M17.8955852,15.0020196 L19.5547258,15.0020196 C19.8306465,15.0020196 20.0543236,14.7725611 20.0543236,14.4895088 C20.0543236,14.2064564 19.8306465,13.976998 19.5547258,13.976998 L17.8955852,13.976998 C17.6196645,13.976998 17.3959873,14.2064564 17.3959873,14.4895088 C17.3959873,14.7725611 17.6196645,15.0020196 17.8955852,15.0020196 L17.8955852,15.0020196 Z M19.5547258,18.6257634 C19.8306465,18.6257634 20.0543236,18.3963051 20.0543236,18.1132526 C20.0543236,17.8302003 19.8306465,17.600742 19.5547258,17.600742 L14.8811071,17.600742 C14.6051863,17.600742 14.3815092,17.8302003 14.3815092,18.1132526 C14.3815092,18.3963051 14.6051863,18.6257634 14.8811071,18.6257634 L19.5547258,18.6257634 L19.5547258,18.6257634 Z M12.0781729,8.24141693 L11.4686636,7.61615386 C11.30451,7.44780624 11.0863047,7.35506621 10.8541582,7.35506621 C10.6220117,7.35506621 10.4038064,7.44780624 10.2396529,7.61615386 L7.0427026,10.8957346 L6.15898538,9.98917622 C5.99487945,9.82087747 5.77662654,9.72813744 5.54452767,9.72813744 C5.3124288,9.72813744 5.09417589,9.82087747 4.93006986,9.98922509 L4.32041781,10.6145858 C3.98164285,10.9621657 3.98164285,11.5277336 4.32046535,11.8753135 L6.42814963,14.0374255 C6.59230329,14.2058707 6.8105561,14.2986108 7.0427026,14.2986108 L7.04275014,14.2986108 C7.27484901,14.2986108 7.49310192,14.2058707 7.65716031,14.0375231 L12.0782204,9.50219338 C12.4169954,9.15461347 12.4169954,8.58899693 12.0781729,8.24141693 L12.0781729,8.24141693 Z M7.04265497,13.2182381 L5.11901307,11.2449252 L5.54448004,10.8084613 L6.68936796,11.9829407 C6.88449662,12.1831128 7.20081342,12.1831128 7.39594208,11.9829407 L10.8541582,8.43534125 L11.2796253,8.87180515 L7.04265497,13.2182381 L7.04265497,13.2182381 Z" id="Receipt" fill="#4E4E4E" sketch:type="MSShapeGroup"></path>
        </g>
    </g>
</svg>