<?xml version="1.0" encoding="UTF-8" standalone="no"?>
<svg width="24px" height="24px" viewBox="0 0 24 24" version="1.1" xmlns="http://www.w3.org/2000/svg" xmlns:xlink="http://www.w3.org/1999/xlink" xmlns:sketch="http://www.bohemiancoding.com/sketch/ns">
    <!-- Generator: Sketch 3.3.3 (12072) - http://www.bohemiancoding.com/sketch -->
    <title>Pay_Step_2-Pay</title>
    <desc>Created with Sketch.</desc>
    <defs></defs>
    <g id="Page-1" stroke="none" stroke-width="1" fill="none" fill-rule="evenodd" sketch:type="MSPage">
        <g id="Pay_Step_2-Pay" sketch:type="MSLayerGroup">
            <rect id="24x24" stroke="#979797" opacity="0.01" fill-opacity="0.01" fill="#FFFFFF" sketch:type="MSShapeGroup" x="0" y="0" width="24" height="24"></rect>
            <g id="Pay" transform="translate(1.000000, 2.000000)" fill="#4E4E4E" sketch:type="MSShapeGroup">
                <path d="M20.644933,7.42626243 L19.8695897,7.42626243 L21.5314186,5.76732718 C21.787366,5.51182541 21.9283291,5.1721304 21.9283291,4.81079353 C21.9283291,4.46347365 21.7977484,4.13633458 21.560279,3.88453109 C21.7977027,3.6327276 21.9283291,3.30558852 21.9283291,2.95826865 C21.9283291,2.59693178 21.787366,2.25723678 21.5314186,2.00178065 L19.9230111,0.396265181 C19.6671095,0.140717743 19.3268219,0 18.9649005,0 C18.6029792,0 18.2626459,0.140717743 18.0067442,0.396219523 L10.964439,7.42626243 L1.35506699,7.42626243 C0.607898046,7.42626243 0,8.03310199 0,8.77896996 L0,18.6472468 C0,19.3931605 0.607898046,20 1.35506699,20 L20.644933,20 C21.3921019,20 22,19.3931605 22,18.6472468 L22,8.77896996 C22,8.03310199 21.3921019,7.42626243 20.644933,7.42626243 L20.644933,7.42626243 L20.644933,7.42626243 Z M20.8522156,5.08930691 L18.5112296,7.42626243 L18.0137878,7.42626243 L20.8808016,4.56419505 C21.0052993,4.71874714 20.9958774,4.94598667 20.8522156,5.08930691 L20.8522156,5.08930691 L20.8522156,5.08930691 Z M8.94690906,11.2349557 L10.6738225,12.9588165 L8.25242979,13.6521779 L8.94690906,11.2349557 L8.94690906,11.2349557 Z M11.572703,12.500137 L9.40634295,10.3375948 L16.6451825,3.11140535 L18.8114967,5.27390193 L11.572703,12.500137 L11.572703,12.500137 Z M18.6859014,1.07419414 C18.7604079,0.999771713 18.8595212,0.958816547 18.9649005,0.958816547 C19.0702799,0.958816547 19.1693474,0.999817373 19.243854,1.07419414 L20.8523071,2.67975527 C20.9268136,2.75413205 20.9678402,2.85302712 20.9678402,2.95826865 C20.9678402,3.06346452 20.9268136,3.16240526 20.8522614,3.23678203 L19.4907454,4.59597297 L17.3244311,2.43343074 L18.6859014,1.07419414 L18.6859014,1.07419414 Z M21.0395109,18.6472468 C21.0395109,18.8644873 20.8625066,19.0411835 20.644933,19.0411835 L1.35506699,19.0411835 C1.13749337,19.0411835 0.960488974,18.8644873 0.960488974,18.6472468 L0.960488974,8.77896996 C0.960488974,8.56177518 1.13749337,8.38507898 1.35506699,8.38507898 L10.0039501,8.38507898 L8.35666572,10.029495 C8.29908212,10.087024 8.25704929,10.1581591 8.23463788,10.2363254 L7.09023814,14.219295 C7.04207647,14.386814 7.08882027,14.5672084 7.21226597,14.6904392 C7.3036039,14.7816181 7.42627206,14.8308373 7.55191317,14.8308373 C7.59609566,14.8308373 7.64059832,14.8247649 7.6842777,14.8122546 L11.6741946,13.6698475 C11.7524973,13.6474751 11.8238022,13.6055155 11.8813858,13.5480321 L17.0532988,8.38507898 L20.6448872,8.38507898 C20.8624609,8.38507898 21.0394653,8.56177518 21.0394653,8.77896996 L21.0394653,18.6472468 L21.0395109,18.6472468 L21.0395109,18.6472468 Z" id="Shape"></path>
                <path d="M2.46901111,10.9793014 L5.28839322,10.9793014 C5.54742136,10.9793014 5.75740433,10.7600779 5.75740433,10.4896507 C5.75740433,10.2192237 5.54742136,10 5.28839322,10 L2.46901111,10 C2.20998298,10 2,10.2192237 2,10.4896507 C2,10.7600779 2.21002764,10.9793014 2.46901111,10.9793014 L2.46901111,10.9793014 Z M18.5309889,16.0206986 L2.46901111,16.0206986 C2.20998298,16.0206986 2,16.2399222 2,16.5103493 C2,16.7807764 2.20998298,17 2.46901111,17 L18.5309889,17 C18.790017,17 19,16.7807764 19,16.5103493 C19,16.2399688 18.790017,16.0206986 18.5309889,16.0206986 L18.5309889,16.0206986 Z M18.5309889,12.9991806 L15.2417023,12.9991806 C14.9826741,12.9991806 14.7726912,13.2184043 14.7726912,13.4888313 C14.7726912,13.7592585 14.9826741,13.978482 15.2417023,13.978482 L18.5309889,13.978482 C18.790017,13.978482 19,13.7592585 19,13.4888313 C19,13.2184508 18.790017,12.9991806 18.5309889,12.9991806 L18.5309889,12.9991806 Z" id="Shape"></path>
            </g>
        </g>
    </g>
</svg>