<?xml version="1.0" encoding="UTF-8" standalone="no"?>
<svg width="24px" height="24px" viewBox="0 0 24 24" version="1.1" xmlns="http://www.w3.org/2000/svg" xmlns:xlink="http://www.w3.org/1999/xlink" xmlns:sketch="http://www.bohemiancoding.com/sketch/ns">
    <!-- Generator: Sketch 3.3.3 (12072) - http://www.bohemiancoding.com/sketch -->
    <title>Pay_Step_3-Confirm</title>
    <desc>Created with Sketch.</desc>
    <defs></defs>
    <g id="Page-1" stroke="none" stroke-width="1" fill="none" fill-rule="evenodd" sketch:type="MSPage">
        <g id="Pay_Step_3-Confirm" sketch:type="MSLayerGroup">
            <rect id="24x24" stroke="#979797" opacity="0.01" fill-opacity="0.01" fill="#FFFFFF" sketch:type="MSShapeGroup" x="0" y="0" width="24" height="24"></rect>
            <path d="M7.49,9.91 L5.95,11.45 L10.9,16.4 L21.9,5.4 L20.36,3.86 L10.9,13.32 L7.49,9.91 L7.49,9.91 Z M20.8,12 C20.8,16.84 16.84,20.8 12,20.8 C7.16,20.8 3.2,16.84 3.2,12 C3.2,7.16 7.16,3.2 12,3.2 C12.88,3.2 13.65,3.31 14.42,3.53 L16.1800431,1.77 C14.86,1.33 13.43,1 12,1 C5.95,1 1,5.95 1,12 C1,18.05 5.95,23 12,23 C18.05,23 23,18.05 23,12 L20.8,12 L20.8,12 Z" id="Tick" fill="#4E4E4E" sketch:type="MSShapeGroup"></path>
        </g>
    </g>
</svg>