<?xml version="1.0" encoding="UTF-8" standalone="no"?>
<svg width="93px" height="44px" viewBox="0 0 93 44" version="1.1" xmlns="http://www.w3.org/2000/svg" xmlns:xlink="http://www.w3.org/1999/xlink" xmlns:sketch="http://www.bohemiancoding.com/sketch/ns">
    <!-- Generator: Sketch 3.3.3 (12072) - http://www.bohemiancoding.com/sketch -->
    <title>Pay_Step_2</title>
    <desc>Created with Sketch.</desc>
    <defs></defs>
    <g id="Page-1" stroke="none" stroke-width="1" fill="none" fill-rule="evenodd" sketch:type="MSPage">
        <g id="Payments_Top" sketch:type="MSLayerGroup" transform="translate(-93.000000, 0.000000)">
            <g id="Pay_Step_2" transform="translate(93.000000, 0.000000)">
                <rect id="93x44" fill="#E8E8E8" sketch:type="MSShapeGroup" x="0" y="0" width="93" height="44"></rect>
                <text id="Payment" sketch:type="MSTextLayer" font-family="Avenir Next" font-size="10" font-weight="normal" sketch:alignment="middle" letter-spacing="1" fill="#505050">
                    <tspan x="41.025" y="25">Payment</tspan>
                </text>
                <g id="Pay" transform="translate(10.000000, 12.000000)" fill="#4E4E4E" sketch:type="MSShapeGroup">
                    <path d="M20.6023154,7.43202733 L19.8285726,7.43202733 L21.486971,5.77671982 C21.74239,5.52177677 21.8830622,5.1828246 21.8830622,4.8222779 C21.8830622,4.47571754 21.752751,4.14929385 21.5157718,3.898041 C21.7527054,3.64678815 21.8830622,3.32036446 21.8830622,2.9738041 C21.8830622,2.6132574 21.74239,2.27430524 21.486971,2.01940774 L19.8818838,0.417403189 C19.6265104,0.162414579 19.2869253,0.0220045558 18.925751,0.0220045558 C18.5645768,0.0220045558 18.2249461,0.162414579 17.9695726,0.417357631 L10.941805,7.43202733 L1.35226971,7.43202733 C0.606643154,7.43202733 0,8.03753986 0,8.78177677 L0,18.6284738 C0,19.3727563 0.606643154,19.9782688 1.35226971,19.9782688 L20.6023154,19.9782688 C21.3479419,19.9782688 21.9545851,19.3727563 21.9545851,18.6284738 L21.9545851,8.78177677 C21.9545851,8.03753986 21.3479419,7.43202733 20.6023154,7.43202733 L20.6023154,7.43202733 L20.6023154,7.43202733 Z M20.8091701,5.10018223 L18.4730166,7.43202733 L17.9766017,7.43202733 L20.8376971,4.57621868 C20.9619378,4.7304328 20.9525353,4.9571754 20.8091701,5.10018223 L20.8091701,5.10018223 L20.8091701,5.10018223 Z M8.92843983,11.2323918 L10.6517884,12.9524829 L8.23539419,13.644328 L8.92843983,11.2323918 L8.92843983,11.2323918 Z M11.5488133,12.4948064 L9.38692531,10.3369932 L16.6108216,3.12660592 L18.7726639,5.28437358 L11.5488133,12.4948064 L11.5488133,12.4948064 Z M18.6473278,1.09384966 C18.7216805,1.01958998 18.8205892,0.978724374 18.925751,0.978724374 C19.0309129,0.978724374 19.1297759,1.01963554 19.2041286,1.09384966 L20.8092614,2.69589977 C20.8836141,2.7701139 20.924556,2.86879271 20.924556,2.9738041 C20.924556,3.07876993 20.8836141,3.17749431 20.8092158,3.25170843 L19.4505104,4.60792711 L17.288668,2.4501139 L18.6473278,1.09384966 L18.6473278,1.09384966 Z M20.9960788,18.6284738 C20.9960788,18.8452392 20.8194398,19.021549 20.6023154,19.021549 L1.35226971,19.021549 C1.13514523,19.021549 0.958506224,18.8452392 0.958506224,18.6284738 L0.958506224,8.78177677 C0.958506224,8.56505695 1.13514523,8.38874715 1.35226971,8.38874715 L9.98329876,8.38874715 L8.33941494,10.0295672 C8.28195021,10.0869704 8.24000415,10.1579499 8.217639,10.2359453 L7.07560166,14.210205 C7.02753942,14.3773576 7.07418672,14.5573576 7.19737759,14.6803189 C7.28852697,14.7712984 7.41094191,14.82041 7.53632365,14.82041 C7.58041494,14.82041 7.62482573,14.8143508 7.66841494,14.8018679 L11.6500954,13.661959 C11.7282365,13.6396355 11.7993942,13.5977677 11.8568589,13.54041 L17.0180954,8.38874715 L20.6022697,8.38874715 C20.8193942,8.38874715 20.9960332,8.56505695 20.9960332,8.78177677 L20.9960332,18.6284738 L20.9960788,18.6284738 L20.9960788,18.6284738 Z" id="Shape"></path>
                    <path d="M2.66177178,11.3078815 L5.54272199,11.3078815 C5.80740664,11.3078815 6.0219751,11.093713 6.0219751,10.8295216 C6.0219751,10.5653303 5.80740664,10.3511617 5.54272199,10.3511617 L2.66177178,10.3511617 C2.39708714,10.3511617 2.18251867,10.5653303 2.18251867,10.8295216 C2.18251867,11.093713 2.39713278,11.3078815 2.66177178,11.3078815 Z M19.0745021,16.2330296 L2.66177178,16.2330296 C2.39708714,16.2330296 2.18251867,16.4471982 2.18251867,16.7113895 C2.18251867,16.9755809 2.39708714,17.1897494 2.66177178,17.1897494 L19.0745021,17.1897494 C19.3391867,17.1897494 19.5537552,16.9755809 19.5537552,16.7113895 C19.5537552,16.4472437 19.3391867,16.2330296 19.0745021,16.2330296 Z M19.0745021,13.2811845 L15.7133859,13.2811845 C15.4487012,13.2811845 15.2341328,13.4953531 15.2341328,13.7595444 C15.2341328,14.0237358 15.4487012,14.2379043 15.7133859,14.2379043 L19.0745021,14.2379043 C19.3391867,14.2379043 19.5537552,14.0237358 19.5537552,13.7595444 C19.5537552,13.4953986 19.3391867,13.2811845 19.0745021,13.2811845 Z" id="Shape"></path>
                </g>
            </g>
        </g>
    </g>
</svg>