<?xml version="1.0" encoding="UTF-8" standalone="no"?>
<svg width="24px" height="24px" viewBox="0 0 24 24" version="1.1" xmlns="http://www.w3.org/2000/svg" xmlns:xlink="http://www.w3.org/1999/xlink" xmlns:sketch="http://www.bohemiancoding.com/sketch/ns">
    <!-- Generator: Sketch 3.3.3 (12072) - http://www.bohemiancoding.com/sketch -->
    <title>Pay_Step_1-Order</title>
    <desc>Created with Sketch.</desc>
    <defs></defs>
    <g id="Page-1" stroke="none" stroke-width="1" fill="none" fill-rule="evenodd" sketch:type="MSPage">
        <g id="Pay_Step_1-Order" sketch:type="MSLayerGroup">
            <rect id="24x24" opacity="0.01" fill-opacity="0.01" fill="#FFFFFF" sketch:type="MSShapeGroup" x="0" y="0" width="24" height="24"></rect>
            <path d="M11.1355005,21.420615 C11.1355005,22.2915336 10.4346994,23 9.5732838,23 C8.7118681,23 8.011067,22.2914973 8.011067,21.420615 C8.011067,20.5497326 8.7118681,19.8412299 9.5732838,19.8412299 C10.4346994,19.8412299 11.1355005,20.5495873 11.1355005,21.420615 L11.1355005,21.420615 L11.1355005,21.420615 Z M19.2633559,19.8411936 C18.4019403,19.8411936 17.7011391,20.5496963 17.7011391,21.4205786 C17.7011391,22.2914973 18.4019403,22.9999637 19.2633559,22.9999637 C20.1247715,22.9999637 20.8255727,22.2914609 20.8255727,21.4205786 C20.8255727,20.5496963 20.1247715,19.8411936 19.2633559,19.8411936 L19.2633559,19.8411936 L19.2633559,19.8411936 Z M22.8704957,6.1961107 C22.7644498,6.0672028 22.6071785,5.9926637 22.4413875,5.9924457 L5.780438,5.9743469 L4.6740385,1.4302987 C4.6123881,1.1776436 4.388254,1 4.130976,1 L1.5593108,1 C1.25034,1 1,1.2530912 1,1.5654575 C1,1.8778238 1.25034,2.130915 1.5593108,2.130915 L3.6924855,2.130915 L6.8771316,15.2106858 L7.3550927,17.4883976 C7.5487072,18.4117589 8.3669855,19.08192 9.3006561,19.08192 L20.0747682,19.08192 C20.383739,19.08192 20.6340791,18.8288288 20.6340791,18.5164625 C20.6340791,18.2040962 20.383739,17.951005 20.0747682,17.951005 L9.3006561,17.951005 C8.892146,17.951005 8.5340706,17.657755 8.4495215,17.2536958 L8.1130507,15.6501065 L20.8977198,15.6501065 C21.1677592,15.6501065 21.3991907,15.4549093 21.447864,15.1863361 L22.9908487,6.6595176 C23.0207213,6.4946667 22.9766493,6.3248005 22.8704957,6.1961107 L22.8704957,6.1961107 L22.8704957,6.1961107 Z" id="Cart" stroke="#4E4E4E" stroke-width="0.6875" sketch:type="MSShapeGroup"></path>
        </g>
    </g>
</svg>