<?xml version="1.0" encoding="UTF-8" standalone="no"?>
<svg width="93px" height="44px" viewBox="0 0 93 44" version="1.1" xmlns="http://www.w3.org/2000/svg" xmlns:xlink="http://www.w3.org/1999/xlink" xmlns:sketch="http://www.bohemiancoding.com/sketch/ns">
    <!-- Generator: Sketch 3.3.3 (12072) - http://www.bohemiancoding.com/sketch -->
    <title>Pay_Step_1</title>
    <desc>Created with Sketch.</desc>
    <defs></defs>
    <g id="Page-1" stroke="none" stroke-width="1" fill="none" fill-rule="evenodd" sketch:type="MSPage">
        <g id="Payments_Top" sketch:type="MSLayerGroup">
            <g id="Pay_Step_1">
                <rect id="93x44" fill="#E8E8E8" sketch:type="MSShapeGroup" x="0" y="0" width="93" height="44"></rect>
                <text id="Your-Order" sketch:type="MSTextLayer" font-family="Avenir Next" font-size="10" font-weight="normal" sketch:alignment="middle" letter-spacing="1" fill="#505050">
                    <tspan x="51.18" y="18">Your </tspan>
                    <tspan x="48.195" y="32">Orde</tspan>
                    <tspan x="76.205" y="32">r</tspan>
                </text>
                <path d="M20.1355005,31.420615 C20.1355005,32.2915336 19.4346994,33 18.5732838,33 C17.7118681,33 17.011067,32.2914973 17.011067,31.420615 C17.011067,30.5497326 17.7118681,29.8412299 18.5732838,29.8412299 C19.4346994,29.8412299 20.1355005,30.5495873 20.1355005,31.420615 L20.1355005,31.420615 Z M28.2633559,29.8411936 C27.4019403,29.8411936 26.7011391,30.5496963 26.7011391,31.4205786 C26.7011391,32.2914973 27.4019403,32.9999637 28.2633559,32.9999637 C29.1247715,32.9999637 29.8255727,32.2914609 29.8255727,31.4205786 C29.8255727,30.5496963 29.1247715,29.8411936 28.2633559,29.8411936 L28.2633559,29.8411936 Z M31.8704957,16.1961107 C31.7644498,16.0672028 31.6071785,15.9926637 31.4413875,15.9924457 L14.780438,15.9743469 L13.6740385,11.4302987 C13.6123881,11.1776436 13.388254,11 13.130976,11 L10.5593108,11 C10.25034,11 10,11.2530912 10,11.5654575 C10,11.8778238 10.25034,12.130915 10.5593108,12.130915 L12.6924855,12.130915 L15.8771316,25.2106858 L16.3550927,27.4883976 C16.5487072,28.4117589 17.3669855,29.08192 18.3006561,29.08192 L29.0747682,29.08192 C29.383739,29.08192 29.6340791,28.8288288 29.6340791,28.5164625 C29.6340791,28.2040962 29.383739,27.951005 29.0747682,27.951005 L18.3006561,27.951005 C17.892146,27.951005 17.5340706,27.657755 17.4495215,27.2536958 L17.1130507,25.6501065 L29.8977198,25.6501065 C30.1677592,25.6501065 30.3991907,25.4549093 30.447864,25.1863361 L31.9908487,16.6595176 C32.0207213,16.4946667 31.9766493,16.3248005 31.8704957,16.1961107 L31.8704957,16.1961107 Z" id="Cart" stroke="#4E4E4E" stroke-width="0.6875" fill="#F8F8F8" sketch:type="MSShapeGroup"></path>
            </g>
        </g>
    </g>
</svg>