<?xml version="1.0" encoding="UTF-8" standalone="no"?>
<svg width="93px" height="44px" viewBox="0 0 93 44" version="1.1" xmlns="http://www.w3.org/2000/svg" xmlns:xlink="http://www.w3.org/1999/xlink" xmlns:sketch="http://www.bohemiancoding.com/sketch/ns">
    <!-- Generator: Sketch 3.3.3 (12072) - http://www.bohemiancoding.com/sketch -->
    <title>Pay_Step_4</title>
    <desc>Created with Sketch.</desc>
    <defs></defs>
    <g id="Page-1" stroke="none" stroke-width="1" fill="none" fill-rule="evenodd" sketch:type="MSPage">
        <g id="Payments_Top" sketch:type="MSLayerGroup" transform="translate(-281.000000, 0.000000)">
            <g id="Pay_Step_4" transform="translate(281.000000, 0.000000)">
                <rect id="93x44" fill="#E8E8E8" sketch:type="MSShapeGroup" x="0" y="0" width="93" height="44"></rect>
                <text id="Your-Invoice" sketch:type="MSTextLayer" font-family="Avenir Next" font-size="10" font-weight="normal" sketch:alignment="middle" letter-spacing="1" fill="#505050">
                    <tspan x="51.18" y="18">Your </tspan>
                    <tspan x="44.19" y="32">Invoice</tspan>
                </text>
                <path d="M30.5140261,10 L16.1959692,10 C15.3765925,10 14.7099455,10.6799919 14.7099455,11.5157709 L14.7099455,14.9077989 C11.99381,15.7006652 10,18.2562533 10,21.2779822 C10,24.299711 11.9937601,26.8552991 14.7099455,27.6481654 L14.7099455,33.4842291 C14.7099455,34.3200081 15.3765925,35 16.1959692,35 L27.8965866,35 C28.0354091,35 28.1684993,34.9437662 28.2666969,34.8436537 L31.846722,31.1919129 C31.9448698,31.0918004 32,30.9559953 32,30.8143938 L32,11.5157709 C32,10.6799919 31.3334028,10 30.5140261,10 L30.5140261,10 Z M16.1959692,11.0677307 L30.5140261,11.0677307 C30.7561804,11.0677307 30.9532236,11.2687183 30.9532236,11.5157709 L30.9532236,13.1269766 L15.7567219,13.1269766 L15.7567219,11.5157709 C15.7567219,11.2687183 15.9537651,11.0677307 16.1959692,11.0677307 L16.1959692,11.0677307 Z M11.0467764,21.2779313 C11.0467764,18.2139 13.4906005,15.7211555 16.4944999,15.7211555 C19.4983992,15.7211555 21.9422234,18.2139 21.9422234,21.2779313 C21.9422234,24.3419626 19.4983992,26.834758 16.4944999,26.834758 C13.4906005,26.834758 11.0467764,24.3419626 11.0467764,21.2779313 L11.0467764,21.2779313 Z M15.7567219,33.4841783 L15.7567219,27.8594744 C15.9989759,27.8875405 16.245068,27.9024887 16.4945497,27.9024887 C18.4452923,27.9024887 20.1977456,27.0204923 21.3892264,25.6271037 L24.5961505,25.6271037 C24.8852103,25.6271037 25.1195387,25.3880845 25.1195387,25.0932383 C25.1195387,24.7983921 24.8852103,24.5593729 24.5961505,24.5593729 L22.1346807,24.5593729 C22.5899287,23.748406 22.8815806,22.8304118 22.9643258,21.8523196 L24.5961006,21.8523196 C24.8851605,21.8523196 25.1194888,21.6133005 25.1194888,21.3184543 C25.1194888,21.023608 24.8851605,20.7845889 24.5961006,20.7845889 L22.9709554,20.7845889 C22.9001733,19.808683 22.621033,18.8910447 22.1790939,18.0775864 L24.5960508,18.0775864 C24.8851106,18.0775864 25.119439,17.8385672 25.119439,17.543721 C25.119439,17.2488748 24.8851106,17.0098557 24.5960508,17.0098557 L21.4570176,17.0098557 C20.2647891,15.569792 18.4826772,14.6533739 16.4944002,14.6533739 C16.2449185,14.6533739 15.9988263,14.6683222 15.7565724,14.6963882 L15.7565724,14.1947073 L30.9530741,14.1947073 L30.9530741,30.2804268 L28.8590726,30.2804268 C28.0396461,30.2804268 27.3730988,30.9604187 27.3730988,31.7961468 L27.3730988,33.9321676 L16.1959692,33.9321676 C15.9537651,33.9321676 15.7567219,33.7312308 15.7567219,33.4841783 L15.7567219,33.4841783 Z M28.4200247,33.1771294 L28.4200247,31.7961977 C28.4200247,31.5491451 28.6170679,31.3482083 28.8592222,31.3482083 L30.213053,31.3482083 L28.4200247,33.1771294 Z M26.6525178,18.0775864 L28.3906651,18.0775864 C28.6797249,18.0775864 28.9140533,17.8385672 28.9140533,17.543721 C28.9140533,17.2488748 28.6797249,17.0098557 28.3906651,17.0098557 L26.6525178,17.0098557 C26.363458,17.0098557 26.1291296,17.2488748 26.1291296,17.543721 C26.1291296,17.8385672 26.363458,18.0775864 26.6525178,18.0775864 Z M26.6525178,21.8523196 L28.3906651,21.8523196 C28.6797249,21.8523196 28.9140533,21.6133005 28.9140533,21.3184543 C28.9140533,21.023608 28.6797249,20.7845889 28.3906651,20.7845889 L26.6525178,20.7845889 C26.363458,20.7845889 26.1291296,21.023608 26.1291296,21.3184543 C26.1291296,21.6133005 26.363458,21.8523196 26.6525178,21.8523196 Z M26.6525178,25.6271037 L28.3906651,25.6271037 C28.6797249,25.6271037 28.9140533,25.3880845 28.9140533,25.0932383 C28.9140533,24.7983921 28.6797249,24.5593729 28.3906651,24.5593729 L26.6525178,24.5593729 C26.363458,24.5593729 26.1291296,24.7983921 26.1291296,25.0932383 C26.1291296,25.3880845 26.363458,25.6271037 26.6525178,25.6271037 Z M28.3906651,29.4018369 C28.6797249,29.4018369 28.9140533,29.1628178 28.9140533,28.8679715 C28.9140533,28.5731253 28.6797249,28.3341062 28.3906651,28.3341062 L23.4944931,28.3341062 C23.2054333,28.3341062 22.9711049,28.5731253 22.9711049,28.8679715 C22.9711049,29.1628178 23.2054333,29.4018369 23.4944931,29.4018369 L28.3906651,29.4018369 Z M20.5580859,18.5848093 L19.9195523,17.9334936 C19.7475819,17.7581315 19.5189859,17.6615273 19.2757848,17.6615273 C19.0325837,17.6615273 18.8039877,17.7581315 18.6320173,17.9334936 L15.2828313,21.3497235 L14.3570323,20.4053919 C14.1851118,20.2300807 13.9564659,20.1334765 13.7133147,20.1334765 C13.4701635,20.1334765 13.2415176,20.2300807 13.069597,20.4054428 L12.4309139,21.0568602 C12.0760068,21.4189226 12.0760068,22.0080558 12.4309637,22.3701182 L14.6390139,24.6223182 C14.8109844,24.797782 15.0396302,24.8943862 15.2828313,24.8943862 L15.2828811,24.8943862 C15.5260323,24.8943862 15.7546782,24.797782 15.9265489,24.6224199 L20.5581357,19.8981181 C20.9130428,19.5360557 20.9130428,18.9468718 20.5580859,18.5848093 Z M15.2827814,23.768998 L13.2675375,21.7134638 L13.7132648,21.2588139 L14.9126712,22.4822299 C15.1170917,22.6907425 15.4484712,22.6907425 15.6528917,22.4822299 L19.2757848,18.7868138 L19.7215122,19.2414637 L15.2827814,23.768998 L15.2827814,23.768998 Z" id="Receipt" fill="#4E4E4E" sketch:type="MSShapeGroup"></path>
            </g>
        </g>
    </g>
</svg>