<?xml version="1.0" encoding="UTF-8" standalone="no"?>
<svg width="377px" height="46px" viewBox="0 0 377 46" version="1.1" xmlns="http://www.w3.org/2000/svg" xmlns:xlink="http://www.w3.org/1999/xlink" xmlns:sketch="http://www.bohemiancoding.com/sketch/ns">
    <!-- Generator: Sketch 3.3.3 (12072) - http://www.bohemiancoding.com/sketch -->
    <title>Payments_Top</title>
    <desc>Created with Sketch.</desc>
    <defs></defs>
    <g id="Page-1" stroke="none" stroke-width="1" fill="none" fill-rule="evenodd" sketch:type="MSPage">
        <g id="Payments_Top" sketch:type="MSLayerGroup" transform="translate(1.000000, 1.000000)">
            <rect id="BG" stroke="#CCCCCC" fill="#E8E8E8" sketch:type="MSShapeGroup" x="0" y="0" width="375" height="44"></rect>
            <g id="Pay_Step_1">
                <rect id="93x44" fill="#E8E8E8" sketch:type="MSShapeGroup" x="0" y="0" width="93" height="44"></rect>
                <text id="Your-Order" sketch:type="MSTextLayer" font-family="Avenir Next" font-size="10" font-weight="normal" sketch:alignment="middle" letter-spacing="1" fill="#505050">
                    <tspan x="51.18" y="18">Your </tspan>
                    <tspan x="48.195" y="32">Orde</tspan>
                    <tspan x="76.205" y="32">r</tspan>
                </text>
                <path d="M20.1355005,31.420615 C20.1355005,32.2915336 19.4346994,33 18.5732838,33 C17.7118681,33 17.011067,32.2914973 17.011067,31.420615 C17.011067,30.5497326 17.7118681,29.8412299 18.5732838,29.8412299 C19.4346994,29.8412299 20.1355005,30.5495873 20.1355005,31.420615 L20.1355005,31.420615 Z M28.2633559,29.8411936 C27.4019403,29.8411936 26.7011391,30.5496963 26.7011391,31.4205786 C26.7011391,32.2914973 27.4019403,32.9999637 28.2633559,32.9999637 C29.1247715,32.9999637 29.8255727,32.2914609 29.8255727,31.4205786 C29.8255727,30.5496963 29.1247715,29.8411936 28.2633559,29.8411936 L28.2633559,29.8411936 Z M31.8704957,16.1961107 C31.7644498,16.0672028 31.6071785,15.9926637 31.4413875,15.9924457 L14.780438,15.9743469 L13.6740385,11.4302987 C13.6123881,11.1776436 13.388254,11 13.130976,11 L10.5593108,11 C10.25034,11 10,11.2530912 10,11.5654575 C10,11.8778238 10.25034,12.130915 10.5593108,12.130915 L12.6924855,12.130915 L15.8771316,25.2106858 L16.3550927,27.4883976 C16.5487072,28.4117589 17.3669855,29.08192 18.3006561,29.08192 L29.0747682,29.08192 C29.383739,29.08192 29.6340791,28.8288288 29.6340791,28.5164625 C29.6340791,28.2040962 29.383739,27.951005 29.0747682,27.951005 L18.3006561,27.951005 C17.892146,27.951005 17.5340706,27.657755 17.4495215,27.2536958 L17.1130507,25.6501065 L29.8977198,25.6501065 C30.1677592,25.6501065 30.3991907,25.4549093 30.447864,25.1863361 L31.9908487,16.6595176 C32.0207213,16.4946667 31.9766493,16.3248005 31.8704957,16.1961107 L31.8704957,16.1961107 Z" id="Cart" stroke="#4E4E4E" stroke-width="0.6875" fill="#F8F8F8" sketch:type="MSShapeGroup"></path>
            </g>
            <g id="Pay_Step_2" transform="translate(93.000000, 0.000000)">
                <rect id="93x44" fill="#E8E8E8" sketch:type="MSShapeGroup" x="0" y="0" width="93" height="44"></rect>
                <text id="Payment" sketch:type="MSTextLayer" font-family="Avenir Next" font-size="10" font-weight="normal" sketch:alignment="middle" letter-spacing="1" fill="#505050">
                    <tspan x="41.025" y="25">Payment</tspan>
                </text>
                <g id="Pay" transform="translate(10.000000, 12.000000)" fill="#4E4E4E" sketch:type="MSShapeGroup">
                    <path d="M20.6023154,7.43202733 L19.8285726,7.43202733 L21.486971,5.77671982 C21.74239,5.52177677 21.8830622,5.1828246 21.8830622,4.8222779 C21.8830622,4.47571754 21.752751,4.14929385 21.5157718,3.898041 C21.7527054,3.64678815 21.8830622,3.32036446 21.8830622,2.9738041 C21.8830622,2.6132574 21.74239,2.27430524 21.486971,2.01940774 L19.8818838,0.417403189 C19.6265104,0.162414579 19.2869253,0.0220045558 18.925751,0.0220045558 C18.5645768,0.0220045558 18.2249461,0.162414579 17.9695726,0.417357631 L10.941805,7.43202733 L1.35226971,7.43202733 C0.606643154,7.43202733 0,8.03753986 0,8.78177677 L0,18.6284738 C0,19.3727563 0.606643154,19.9782688 1.35226971,19.9782688 L20.6023154,19.9782688 C21.3479419,19.9782688 21.9545851,19.3727563 21.9545851,18.6284738 L21.9545851,8.78177677 C21.9545851,8.03753986 21.3479419,7.43202733 20.6023154,7.43202733 L20.6023154,7.43202733 L20.6023154,7.43202733 Z M20.8091701,5.10018223 L18.4730166,7.43202733 L17.9766017,7.43202733 L20.8376971,4.57621868 C20.9619378,4.7304328 20.9525353,4.9571754 20.8091701,5.10018223 L20.8091701,5.10018223 L20.8091701,5.10018223 Z M8.92843983,11.2323918 L10.6517884,12.9524829 L8.23539419,13.644328 L8.92843983,11.2323918 L8.92843983,11.2323918 Z M11.5488133,12.4948064 L9.38692531,10.3369932 L16.6108216,3.12660592 L18.7726639,5.28437358 L11.5488133,12.4948064 L11.5488133,12.4948064 Z M18.6473278,1.09384966 C18.7216805,1.01958998 18.8205892,0.978724374 18.925751,0.978724374 C19.0309129,0.978724374 19.1297759,1.01963554 19.2041286,1.09384966 L20.8092614,2.69589977 C20.8836141,2.7701139 20.924556,2.86879271 20.924556,2.9738041 C20.924556,3.07876993 20.8836141,3.17749431 20.8092158,3.25170843 L19.4505104,4.60792711 L17.288668,2.4501139 L18.6473278,1.09384966 L18.6473278,1.09384966 Z M20.9960788,18.6284738 C20.9960788,18.8452392 20.8194398,19.021549 20.6023154,19.021549 L1.35226971,19.021549 C1.13514523,19.021549 0.958506224,18.8452392 0.958506224,18.6284738 L0.958506224,8.78177677 C0.958506224,8.56505695 1.13514523,8.38874715 1.35226971,8.38874715 L9.98329876,8.38874715 L8.33941494,10.0295672 C8.28195021,10.0869704 8.24000415,10.1579499 8.217639,10.2359453 L7.07560166,14.210205 C7.02753942,14.3773576 7.07418672,14.5573576 7.19737759,14.6803189 C7.28852697,14.7712984 7.41094191,14.82041 7.53632365,14.82041 C7.58041494,14.82041 7.62482573,14.8143508 7.66841494,14.8018679 L11.6500954,13.661959 C11.7282365,13.6396355 11.7993942,13.5977677 11.8568589,13.54041 L17.0180954,8.38874715 L20.6022697,8.38874715 C20.8193942,8.38874715 20.9960332,8.56505695 20.9960332,8.78177677 L20.9960332,18.6284738 L20.9960788,18.6284738 L20.9960788,18.6284738 Z" id="Shape"></path>
                    <path d="M2.66177178,11.3078815 L5.54272199,11.3078815 C5.80740664,11.3078815 6.0219751,11.093713 6.0219751,10.8295216 C6.0219751,10.5653303 5.80740664,10.3511617 5.54272199,10.3511617 L2.66177178,10.3511617 C2.39708714,10.3511617 2.18251867,10.5653303 2.18251867,10.8295216 C2.18251867,11.093713 2.39713278,11.3078815 2.66177178,11.3078815 Z M19.0745021,16.2330296 L2.66177178,16.2330296 C2.39708714,16.2330296 2.18251867,16.4471982 2.18251867,16.7113895 C2.18251867,16.9755809 2.39708714,17.1897494 2.66177178,17.1897494 L19.0745021,17.1897494 C19.3391867,17.1897494 19.5537552,16.9755809 19.5537552,16.7113895 C19.5537552,16.4472437 19.3391867,16.2330296 19.0745021,16.2330296 Z M19.0745021,13.2811845 L15.7133859,13.2811845 C15.4487012,13.2811845 15.2341328,13.4953531 15.2341328,13.7595444 C15.2341328,14.0237358 15.4487012,14.2379043 15.7133859,14.2379043 L19.0745021,14.2379043 C19.3391867,14.2379043 19.5537552,14.0237358 19.5537552,13.7595444 C19.5537552,13.4953986 19.3391867,13.2811845 19.0745021,13.2811845 Z" id="Shape"></path>
                </g>
            </g>
            <g id="Pay_Step_3" transform="translate(187.000000, 0.000000)">
                <rect id="93x44" fill="#E8E8E8" sketch:type="MSShapeGroup" x="0" y="0" width="93" height="44"></rect>
                <text id="Confirm-Order" sketch:type="MSTextLayer" font-family="Avenir Next" font-size="10" font-weight="normal" sketch:alignment="middle" letter-spacing="1" fill="#505050">
                    <tspan x="42.065" y="18">Confirm </tspan>
                    <tspan x="47.695" y="32">Order</tspan>
                </text>
                <path d="M16.49,19.91 L14.95,21.45 L19.9,26.4 L30.9,15.4 L29.36,13.86 L19.9,23.32 L16.49,19.91 L16.49,19.91 Z M29.8,22 C29.8,26.84 25.84,30.8 21,30.8 C16.16,30.8 12.2,26.84 12.2,22 C12.2,17.16 16.16,13.2 21,13.2 C21.88,13.2 22.65,13.31 23.42,13.53 L25.1800431,11.77 C23.86,11.33 22.43,11 21,11 C14.95,11 10,15.95 10,22 C10,28.05 14.95,33 21,33 C27.05,33 32,28.05 32,22 L29.8,22 L29.8,22 Z" id="Tick" fill="#4E4E4E" sketch:type="MSShapeGroup"></path>
            </g>
            <g id="Pay_Step_4" transform="translate(281.000000, 0.000000)">
                <rect id="93x44" fill="#E8E8E8" sketch:type="MSShapeGroup" x="0" y="0" width="93" height="44"></rect>
                <text id="Your-Invoice" sketch:type="MSTextLayer" font-family="Avenir Next" font-size="10" font-weight="normal" sketch:alignment="middle" letter-spacing="1" fill="#505050">
                    <tspan x="51.18" y="18">Your </tspan>
                    <tspan x="44.19" y="32">Invoice</tspan>
                </text>
                <path d="M30.5140261,10 L16.1959692,10 C15.3765925,10 14.7099455,10.6799919 14.7099455,11.5157709 L14.7099455,14.9077989 C11.99381,15.7006652 10,18.2562533 10,21.2779822 C10,24.299711 11.9937601,26.8552991 14.7099455,27.6481654 L14.7099455,33.4842291 C14.7099455,34.3200081 15.3765925,35 16.1959692,35 L27.8965866,35 C28.0354091,35 28.1684993,34.9437662 28.2666969,34.8436537 L31.846722,31.1919129 C31.9448698,31.0918004 32,30.9559953 32,30.8143938 L32,11.5157709 C32,10.6799919 31.3334028,10 30.5140261,10 L30.5140261,10 Z M16.1959692,11.0677307 L30.5140261,11.0677307 C30.7561804,11.0677307 30.9532236,11.2687183 30.9532236,11.5157709 L30.9532236,13.1269766 L15.7567219,13.1269766 L15.7567219,11.5157709 C15.7567219,11.2687183 15.9537651,11.0677307 16.1959692,11.0677307 L16.1959692,11.0677307 Z M11.0467764,21.2779313 C11.0467764,18.2139 13.4906005,15.7211555 16.4944999,15.7211555 C19.4983992,15.7211555 21.9422234,18.2139 21.9422234,21.2779313 C21.9422234,24.3419626 19.4983992,26.834758 16.4944999,26.834758 C13.4906005,26.834758 11.0467764,24.3419626 11.0467764,21.2779313 L11.0467764,21.2779313 Z M15.7567219,33.4841783 L15.7567219,27.8594744 C15.9989759,27.8875405 16.245068,27.9024887 16.4945497,27.9024887 C18.4452923,27.9024887 20.1977456,27.0204923 21.3892264,25.6271037 L24.5961505,25.6271037 C24.8852103,25.6271037 25.1195387,25.3880845 25.1195387,25.0932383 C25.1195387,24.7983921 24.8852103,24.5593729 24.5961505,24.5593729 L22.1346807,24.5593729 C22.5899287,23.748406 22.8815806,22.8304118 22.9643258,21.8523196 L24.5961006,21.8523196 C24.8851605,21.8523196 25.1194888,21.6133005 25.1194888,21.3184543 C25.1194888,21.023608 24.8851605,20.7845889 24.5961006,20.7845889 L22.9709554,20.7845889 C22.9001733,19.808683 22.621033,18.8910447 22.1790939,18.0775864 L24.5960508,18.0775864 C24.8851106,18.0775864 25.119439,17.8385672 25.119439,17.543721 C25.119439,17.2488748 24.8851106,17.0098557 24.5960508,17.0098557 L21.4570176,17.0098557 C20.2647891,15.569792 18.4826772,14.6533739 16.4944002,14.6533739 C16.2449185,14.6533739 15.9988263,14.6683222 15.7565724,14.6963882 L15.7565724,14.1947073 L30.9530741,14.1947073 L30.9530741,30.2804268 L28.8590726,30.2804268 C28.0396461,30.2804268 27.3730988,30.9604187 27.3730988,31.7961468 L27.3730988,33.9321676 L16.1959692,33.9321676 C15.9537651,33.9321676 15.7567219,33.7312308 15.7567219,33.4841783 L15.7567219,33.4841783 Z M28.4200247,33.1771294 L28.4200247,31.7961977 C28.4200247,31.5491451 28.6170679,31.3482083 28.8592222,31.3482083 L30.213053,31.3482083 L28.4200247,33.1771294 Z M26.6525178,18.0775864 L28.3906651,18.0775864 C28.6797249,18.0775864 28.9140533,17.8385672 28.9140533,17.543721 C28.9140533,17.2488748 28.6797249,17.0098557 28.3906651,17.0098557 L26.6525178,17.0098557 C26.363458,17.0098557 26.1291296,17.2488748 26.1291296,17.543721 C26.1291296,17.8385672 26.363458,18.0775864 26.6525178,18.0775864 Z M26.6525178,21.8523196 L28.3906651,21.8523196 C28.6797249,21.8523196 28.9140533,21.6133005 28.9140533,21.3184543 C28.9140533,21.023608 28.6797249,20.7845889 28.3906651,20.7845889 L26.6525178,20.7845889 C26.363458,20.7845889 26.1291296,21.023608 26.1291296,21.3184543 C26.1291296,21.6133005 26.363458,21.8523196 26.6525178,21.8523196 Z M26.6525178,25.6271037 L28.3906651,25.6271037 C28.6797249,25.6271037 28.9140533,25.3880845 28.9140533,25.0932383 C28.9140533,24.7983921 28.6797249,24.5593729 28.3906651,24.5593729 L26.6525178,24.5593729 C26.363458,24.5593729 26.1291296,24.7983921 26.1291296,25.0932383 C26.1291296,25.3880845 26.363458,25.6271037 26.6525178,25.6271037 Z M28.3906651,29.4018369 C28.6797249,29.4018369 28.9140533,29.1628178 28.9140533,28.8679715 C28.9140533,28.5731253 28.6797249,28.3341062 28.3906651,28.3341062 L23.4944931,28.3341062 C23.2054333,28.3341062 22.9711049,28.5731253 22.9711049,28.8679715 C22.9711049,29.1628178 23.2054333,29.4018369 23.4944931,29.4018369 L28.3906651,29.4018369 Z M20.5580859,18.5848093 L19.9195523,17.9334936 C19.7475819,17.7581315 19.5189859,17.6615273 19.2757848,17.6615273 C19.0325837,17.6615273 18.8039877,17.7581315 18.6320173,17.9334936 L15.2828313,21.3497235 L14.3570323,20.4053919 C14.1851118,20.2300807 13.9564659,20.1334765 13.7133147,20.1334765 C13.4701635,20.1334765 13.2415176,20.2300807 13.069597,20.4054428 L12.4309139,21.0568602 C12.0760068,21.4189226 12.0760068,22.0080558 12.4309637,22.3701182 L14.6390139,24.6223182 C14.8109844,24.797782 15.0396302,24.8943862 15.2828313,24.8943862 L15.2828811,24.8943862 C15.5260323,24.8943862 15.7546782,24.797782 15.9265489,24.6224199 L20.5581357,19.8981181 C20.9130428,19.5360557 20.9130428,18.9468718 20.5580859,18.5848093 Z M15.2827814,23.768998 L13.2675375,21.7134638 L13.7132648,21.2588139 L14.9126712,22.4822299 C15.1170917,22.6907425 15.4484712,22.6907425 15.6528917,22.4822299 L19.2757848,18.7868138 L19.7215122,19.2414637 L15.2827814,23.768998 L15.2827814,23.768998 Z" id="Receipt" fill="#4E4E4E" sketch:type="MSShapeGroup"></path>
            </g>
        </g>
    </g>
</svg>