<?xml version="1.0" encoding="UTF-8" standalone="no"?>
<svg width="24px" height="24px" viewBox="0 0 24 24" version="1.1" xmlns="http://www.w3.org/2000/svg" xmlns:xlink="http://www.w3.org/1999/xlink" xmlns:sketch="http://www.bohemiancoding.com/sketch/ns">
    <!-- Generator: Sketch 3.3.3 (12072) - http://www.bohemiancoding.com/sketch -->
    <title>TabBar_Profile</title>
    <desc>Created with Sketch.</desc>
    <defs>
        <path d="M19.0087217,13.8950739 C16.2820899,12.9916745 15.1486657,11.8682446 15.1486657,11.8682446 L15.0574076,11.9564832 C14.2476803,12.7295671 13.3521286,13.1840473 12.5362883,13.1840473 L12.4592939,13.1840473 C11.6435021,13.1840473 10.7479505,12.7295671 9.93822313,11.9564832 L9.84691655,11.8682446 C9.84691655,11.8682446 8.71358938,12.9916253 5.98690901,13.8950739 C1.96185101,15.420277 3.17042605,21.6273401 3.16926167,21.675421 C3.29603325,22.3667132 3.36992268,22.6043126 3.43430304,22.630986 C7.47634155,24.456338 17.5193377,24.456338 21.5614247,22.630986 C21.6258051,22.6043126 21.6996945,22.3667132 21.8264661,21.675421 C21.8253017,21.6273401 23.0500325,15.4449326 19.0087217,13.8950739 Z M16.6912229,5.93928311 C16.4647515,5.7289476 16.4824598,5.74100473 16.4824598,5.74100473 C16.4824598,5.74100473 16.8774747,3.71919519 16.5607156,2.76308888 C16.0634295,1.23616327 13.0930547,0.212783059 12.4972817,0.0938357169 C12.4973787,0.0927038225 12.1349178,0.0191306837 12.1117758,0.0189830453 C12.1117758,0.0189830453 11.6431625,-0.0771295568 11.100029,0.163176555 C10.7463009,0.301218464 8.89702731,1.15186174 8.37213576,2.76308888 C8.05542515,3.71919519 8.45044013,5.74100473 8.45044013,5.74100473 C8.45044013,5.74100473 8.46814836,5.7289476 8.24162848,5.93928311 L8.20791005,5.97643878 C8.05469742,6.15291588 8.09253968,6.70508352 8.26001594,7.27954456 C8.4117731,7.85508828 8.60957168,8.00976411 8.65697154,8.14455798 C9.13742269,10.4328056 10.8080614,12.3865539 12.5105265,12.3865539 C14.2129915,12.3865539 15.7953802,10.4328056 16.2758313,8.14455798 C16.3232797,8.00981332 16.5210783,7.85508828 16.6728355,7.27954456 C16.8403117,6.70503431 16.8825689,6.11497281 16.7249898,5.97643878 L16.6912229,5.93928311 Z" id="path-1"></path>
    </defs>
    <g id="Page-1" stroke="none" stroke-width="1" fill="none" fill-rule="evenodd" sketch:type="MSPage">
        <g id="TabBar_Profile" sketch:type="MSLayerGroup">
            <rect id="24x24" opacity="0.01" fill-opacity="0.01" fill="#FFFFFF" sketch:type="MSShapeGroup" x="0" y="0" width="24" height="24"></rect>
            <g id="Profile-Icon">
                <use stroke="none" sketch:type="MSShapeGroup" xlink:href="#path-1"></use>
                <use stroke="#F8F8F8" stroke-width="0.5" xlink:href="#path-1"></use>
            </g>
        </g>
    </g>
</svg>